<svg xmlns="http://www.w3.org/2000/svg" fill="none" viewBox="0 0 128 128"><g id="weather-alert__weather-alert" clip-path="url(#weather-alert__clip0_1905_19070)"><g id="weather-alert__Sky"><g id="weather-alert__Clouds"><g id="weather-alert__Cloud"><path id="weather-alert__Cloud_2" fill="url(#weather-alert__paint0_linear_1905_19070)" stroke="#e6effc" stroke-miterlimit="10" d="M55.262 48.475c4.86-7.864 15.035-11.095 23.553-7.532 8.506 3.56 13.323 13.06 11.088 22.022l-.161.65.669-.03c7.01-.306 13.089 5.407 13.089 12.443 0 6.811-5.728 12.472-12.523 12.472H37.954c-6.826.002-12.751-5.33-13.395-12.14-.643-6.808 4.178-13.148 10.884-14.415l.483-.092-.084-.484c-.816-4.745 1.284-9.652 5.263-12.356 3.99-2.712 9.34-2.86 13.475-.373l.423.255z"/></g><animateTransform attributeName="transform" begin="0s" calcMode="spline" dur="3s" keySplines=".42 0 .58 1; .42 0 .58 1" repeatCount="indefinite" type="translate" values="0 0;0 -3;0 0"/></g></g><g id="weather-alert__Alert"><path id="weather-alert__Exclamation" fill="url(#weather-alert__paint1_linear_1905_19070)" stroke="#202939" d="M89.835 68.75c.962-1.667 3.368-1.667 4.33 0l12.124 21c.962 1.667-.24 3.75-2.165 3.75H79.876c-1.865 0-3.052-1.955-2.249-3.593l.084-.157z"/><path id="weather-alert__ExclamationMark" fill="#fff" d="M92.758 84.59h-1.494l-.846-5.022v-3.384h3.168v3.384zm.846 4.41H90.4v-3.006h3.204z"/><animate attributeName="opacity" begin="0s" dur="1s" keyTimes="0;0.294;0.5;0.794;1" repeatCount="indefinite" values="1;1;0;0;1"/></g></g><defs><linearGradient id="weather-alert__paint0_linear_1905_19070" x1="64.001" x2="64.001" y1="39" y2="89" gradientUnits="userSpaceOnUse"><stop stop-color="#f3f7fe"/><stop offset="1" stop-color="#e6effc"/></linearGradient><linearGradient id="weather-alert__paint1_linear_1905_19070" x1="92" x2="92" y1="67" y2="94" gradientUnits="userSpaceOnUse"><stop stop-color="#364d6e"/><stop offset="1" stop-color="#202939"/></linearGradient><clipPath id="weather-alert__clip0_1905_19070"><rect width="128" height="128" fill="#fff"/></clipPath></defs></svg>
